<?xml version="1.0" standalone="no"?>
<!DOCTYPE svg PUBLIC "-//W3C//DTD SVG 20010904//EN"
 "http://www.w3.org/TR/2001/REC-SVG-20010904/DTD/svg10.dtd">
<svg version="1.0" xmlns="http://www.w3.org/2000/svg"
 width="1122.000000pt" height="1122.000000pt" viewBox="0 0 1122.000000 1122.000000"
 preserveAspectRatio="xMidYMid meet">
<metadata>
Created by potrace 1.14, written by Peter Selinger 2001-2017
</metadata>
<g transform="translate(0.000000,1122.000000) scale(0.100000,-0.100000)"
fill="#000000" stroke="none">
<path d="M4974 11177 c-37 -38 -104 -130 -104 -143 0 -3 -18 -32 -40 -64 -22
-32 -40 -62 -40 -65 0 -3 -5 -11 -11 -18 -5 -7 -32 -46 -58 -87 -27 -41 -78
-120 -113 -175 -386 -596 -549 -860 -606 -975 -9 -19 -20 -37 -24 -40 -13 -11
-178 -349 -216 -445 -37 -93 -71 -187 -76 -210 -2 -5 -10 -35 -20 -66 -9 -31
-18 -65 -21 -75 -2 -11 -10 -50 -18 -89 -39 -179 -51 -301 -52 -485 0 -122 8
-237 20 -301 3 -13 8 -40 11 -59 33 -180 103 -376 217 -605 39 -77 73 -142 76
-145 3 -3 13 -18 21 -35 8 -16 41 -72 73 -123 31 -51 57 -97 57 -103 0 -5 5
-9 10 -9 6 0 10 -7 10 -15 0 -8 4 -15 8 -15 5 0 18 -17 30 -37 19 -34 238
-353 260 -378 4 -5 35 -48 67 -95 33 -47 63 -89 68 -95 4 -5 43 -64 87 -130
43 -66 84 -125 89 -132 6 -7 11 -14 11 -17 0 -2 17 -31 38 -63 21 -32 49 -78
63 -103 13 -25 28 -49 32 -55 4 -5 30 -47 58 -93 48 -79 69 -94 69 -51 0 30
-74 174 -179 349 -34 58 -68 114 -74 125 -7 11 -28 44 -48 75 -19 30 -39 62
-42 70 -4 8 -25 42 -47 75 -22 33 -43 68 -46 78 -4 9 -10 17 -14 17 -4 0 -10
8 -14 18 -3 9 -14 29 -23 44 -30 45 -157 252 -169 273 -6 11 -38 68 -72 127
-80 138 -237 457 -248 503 -1 6 -14 38 -27 73 -14 34 -23 62 -20 62 3 0 1 6
-5 13 -20 25 -78 251 -102 402 -25 158 -32 364 -17 500 12 108 18 150 23 168
3 10 7 30 9 45 6 42 62 262 79 310 8 23 16 46 17 50 1 4 3 12 4 17 5 23 99
273 118 315 11 25 28 65 39 90 46 104 172 350 180 350 5 0 7 4 4 9 -3 5 3 20
14 34 11 14 20 28 20 33 0 16 224 367 294 460 17 23 38 52 46 64 39 59 147
195 197 250 28 30 33 32 34 15 1 -11 3 -31 5 -45 2 -14 5 -83 8 -155 3 -71 8
-185 11 -253 3 -67 7 -141 10 -165 3 -23 8 -71 10 -107 3 -36 7 -76 9 -90 3
-14 7 -47 11 -75 3 -27 13 -90 21 -140 20 -120 21 -126 28 -155 3 -14 8 -36
10 -50 5 -33 63 -260 83 -330 9 -30 18 -59 19 -65 8 -42 169 -503 199 -570 14
-33 49 -122 90 -230 49 -128 154 -435 149 -435 -3 0 0 -8 5 -18 9 -17 44 -141
57 -203 49 -235 52 -435 8 -604 -9 -33 -18 -69 -20 -79 -23 -117 -103 -270
-227 -435 -142 -190 -154 -219 -111 -271 34 -39 78 -62 107 -55 28 7 297 281
297 302 0 3 8 13 18 22 47 42 185 265 198 320 4 14 10 31 14 36 6 9 25 77 35
126 32 160 17 394 -40 610 -14 52 -28 105 -31 119 -11 54 -136 392 -189 515
-11 27 -65 158 -85 210 -4 11 -17 41 -29 67 -11 26 -26 65 -33 87 -7 23 -16
41 -20 41 -5 0 -8 7 -8 15 0 9 -9 35 -20 57 -11 23 -20 46 -20 50 0 5 -9 28
-20 50 -11 23 -20 49 -20 58 0 9 -4 20 -9 26 -23 23 -151 467 -175 604 -3 19
-8 46 -11 60 -3 14 -8 43 -11 65 -3 22 -8 51 -10 65 -2 14 -6 43 -9 65 -2 22
-7 56 -9 75 -9 58 -23 228 -31 355 -3 44 -7 224 -10 400 -11 639 -16 721 -43
741 -34 26 -74 16 -118 -29z"/>
<path d="M7525 6384 c-22 -13 -47 -27 -55 -31 -8 -4 -43 -24 -78 -45 -34 -21
-66 -38 -70 -38 -4 0 -17 -7 -27 -15 -29 -23 -295 -175 -306 -175 -5 0 -9 -4
-9 -9 0 -5 -12 -14 -27 -20 -16 -6 -66 -34 -113 -62 -47 -28 -105 -62 -130
-76 -25 -14 -49 -29 -55 -33 -5 -4 -32 -20 -60 -35 -90 -51 -106 -60 -123 -70
-30 -18 -197 -129 -202 -135 -3 -3 -31 -25 -63 -49 -63 -48 -191 -172 -222
-215 -11 -16 -25 -33 -30 -40 -63 -69 -166 -288 -189 -401 -3 -11 -12 -54 -21
-95 -9 -41 -18 -100 -20 -130 -2 -30 -7 -77 -11 -105 -8 -62 -12 -595 -4 -595
4 0 68 204 84 270 10 38 90 258 115 315 164 370 334 620 596 880 175 173 180
175 62 25 -59 -74 -114 -144 -123 -155 -35 -44 -164 -244 -164 -253 0 -6 -3
-12 -7 -14 -15 -6 -153 -272 -197 -378 -10 -25 -25 -58 -32 -75 -35 -79 -137
-423 -151 -510 -2 -16 -9 -48 -15 -70 -11 -44 -12 -48 -23 -120 -12 -72 -13
-93 -5 -104 9 -15 144 95 271 220 144 141 279 312 385 489 41 68 184 356 189
380 1 3 9 22 18 43 9 21 33 79 53 130 20 51 44 110 54 132 10 22 32 74 50 115
71 166 277 551 309 580 3 3 26 34 50 70 44 64 141 189 171 220 8 9 42 47 75
84 33 38 65 74 70 80 46 52 41 57 -20 20z"/>
<path d="M4910 6229 c0 -9 12 -48 26 -85 23 -61 90 -273 99 -314 2 -8 13 -47
24 -85 11 -39 22 -81 25 -95 3 -14 15 -61 26 -105 12 -44 24 -91 26 -105 3
-14 11 -52 19 -85 8 -33 17 -71 20 -85 2 -14 10 -47 15 -75 6 -27 13 -61 16
-75 2 -14 9 -45 14 -70 11 -49 17 -86 26 -140 2 -19 9 -57 14 -85 18 -98 35
-289 56 -620 3 -44 7 -185 11 -314 4 -195 3 -233 -8 -229 -8 3 -36 40 -63 84
-49 79 -156 219 -231 303 -79 88 -471 479 -524 522 -29 24 -59 49 -65 54 -31
28 -171 127 -246 175 -47 29 -86 57 -88 62 -2 4 -9 8 -15 8 -13 0 -319 204
-423 282 -72 53 -166 137 -180 159 -4 7 5 4 19 -7 15 -10 27 -22 27 -26 0 -5
5 -8 11 -8 6 0 28 -13 48 -28 32 -25 141 -91 266 -163 95 -54 203 -114 240
-133 22 -12 42 -24 43 -28 2 -5 8 -8 13 -8 26 0 310 -182 419 -269 70 -56 260
-240 260 -252 0 -4 12 -21 28 -38 15 -17 61 -80 102 -140 41 -61 79 -110 83
-111 5 0 5 5 2 10 -4 6 -8 38 -11 73 -12 158 -33 242 -97 377 -27 58 -102 187
-117 200 -3 3 -25 32 -50 65 -42 55 -162 180 -241 251 -101 91 -303 227 -479
322 -30 16 -75 40 -100 54 -94 52 -219 118 -330 176 -203 105 -339 179 -361
198 -9 8 -19 11 -22 7 -4 -3 -7 -1 -7 5 0 7 -5 12 -11 12 -20 0 -181 114 -243
172 -56 52 -61 54 -67 35 -7 -28 0 -119 16 -187 3 -14 8 -41 11 -60 11 -62 86
-262 132 -349 103 -197 281 -411 483 -581 29 -25 57 -49 63 -55 6 -5 38 -30
71 -55 33 -25 62 -47 65 -50 33 -37 436 -301 600 -393 19 -10 65 -37 102 -58
36 -22 71 -39 76 -39 6 0 12 -3 14 -7 2 -5 19 -17 38 -27 19 -11 73 -44 120
-73 47 -29 94 -59 105 -66 11 -6 22 -14 25 -17 3 -3 25 -21 50 -40 98 -75 228
-217 248 -270 3 -8 9 -17 13 -20 3 -3 41 -74 84 -159 67 -135 76 -158 70 -190
-4 -20 -9 -47 -11 -61 -13 -91 -21 -136 -29 -180 -3 -14 -7 -36 -10 -50 -3
-14 -7 -36 -10 -50 -3 -14 -7 -34 -9 -45 -2 -11 -9 -40 -16 -65 -7 -25 -14
-52 -15 -61 -31 -161 -188 -613 -300 -864 -78 -175 -243 -507 -333 -670 -16
-27 -42 -75 -58 -105 -80 -144 -152 -258 -176 -278 -19 -15 -29 2 -34 63 -9
109 -48 198 -147 337 -111 154 -234 285 -403 428 -38 33 -168 120 -217 145
-21 11 -46 28 -55 38 -15 17 -15 17 4 11 10 -4 57 -24 102 -46 46 -21 88 -38
93 -38 5 0 9 -4 9 -10 0 -5 6 -10 13 -10 12 0 153 -93 167 -110 3 -3 27 -24
54 -45 28 -22 62 -51 76 -65 15 -14 51 -48 81 -76 85 -80 219 -227 219 -240 0
-3 11 -19 25 -36 14 -16 25 -27 25 -24 0 13 -73 245 -87 276 -97 218 -177 329
-298 415 -111 79 -242 129 -423 161 -12 2 -34 6 -50 9 -15 3 -43 8 -62 10 -19
3 -51 8 -70 11 -94 16 -140 23 -195 29 -27 4 -61 8 -75 11 -14 2 -45 6 -70 9
-25 3 -54 8 -66 10 -11 2 -45 7 -75 11 -56 7 -84 11 -84 14 0 1 -24 3 -52 6
-29 3 -53 1 -53 -4 0 -5 53 -40 117 -78 97 -57 267 -179 319 -228 6 -6 49 -45
94 -86 46 -41 104 -95 130 -120 142 -136 250 -237 271 -255 146 -122 180 -145
324 -220 228 -120 246 -147 250 -371 2 -134 -14 -206 -62 -285 -22 -35 -46
-75 -54 -89 -8 -13 -19 -29 -24 -36 -6 -6 -31 -42 -55 -80 -25 -38 -48 -71
-52 -72 -5 -2 -8 -7 -8 -11 0 -8 -81 -137 -100 -158 -6 -7 -8 -13 -4 -13 3 0
1 -6 -5 -14 -8 -10 -8 -16 1 -24 13 -10 137 -82 143 -82 2 0 34 42 71 93 38
50 71 94 75 97 15 13 166 233 211 310 28 47 56 92 63 100 7 8 23 35 36 60 13
25 29 52 35 60 6 8 28 47 48 85 21 39 45 84 55 100 16 28 52 95 148 275 40 74
101 190 236 450 209 404 352 611 496 720 18 14 38 30 44 35 47 42 143 97 177
100 8 0 29 4 45 8 33 8 113 14 278 22 60 3 121 7 135 9 15 2 54 7 87 11 32 4
68 9 80 11 11 2 47 9 80 15 64 11 154 34 195 50 14 5 34 11 45 13 24 5 205 71
252 92 17 8 34 14 38 14 3 0 25 8 48 19 23 10 98 42 167 71 69 28 139 58 155
65 46 20 248 97 265 100 8 2 16 4 18 5 1 2 5 3 10 4 4 1 12 4 17 8 8 5 142 46
205 63 78 21 165 41 220 51 19 4 44 8 55 10 91 17 197 32 290 40 39 3 86 7
105 9 19 2 41 4 48 4 6 1 12 5 12 10 0 9 -82 38 -190 67 -55 15 -311 82 -340
89 -36 8 -186 47 -200 52 -8 2 -16 4 -17 4 -2 0 -33 9 -70 19 -221 61 -315 83
-478 115 -176 34 -444 40 -580 11 -136 -28 -313 -99 -411 -165 -25 -17 -47
-31 -50 -31 -3 0 -10 -4 -17 -10 -7 -5 -59 -46 -117 -91 -58 -45 -112 -89
-122 -98 -112 -109 -168 -164 -193 -192 -63 -70 -155 -180 -155 -185 0 -6 5
-3 63 33 190 119 579 299 707 328 8 2 29 9 45 15 17 6 37 13 45 15 8 2 60 15
114 29 55 15 111 28 125 30 141 23 218 34 231 35 8 0 42 2 75 6 56 5 195 8
329 6 65 -1 70 -11 9 -16 -62 -6 -152 -18 -228 -30 -143 -23 -432 -90 -512
-119 -24 -8 -43 -13 -43 -9 0 3 -6 1 -12 -5 -7 -5 -29 -13 -48 -17 -19 -4 -39
-11 -45 -15 -5 -4 -28 -13 -50 -20 -22 -7 -44 -15 -50 -19 -5 -3 -12 -6 -15
-7 -27 -5 -250 -113 -265 -128 -7 -6 -31 -20 -54 -30 -22 -11 -41 -23 -41 -28
0 -4 -5 -8 -10 -8 -6 0 -74 -41 -153 -91 -78 -50 -151 -96 -162 -103 -11 -6
-25 -18 -32 -26 -7 -8 -13 -10 -13 -5 0 6 -3 6 -8 -1 -4 -5 -36 -30 -72 -55
-36 -24 -71 -50 -78 -57 -18 -16 -91 -66 -121 -81 -23 -13 -23 -12 -18 26 3
21 15 76 26 123 11 47 22 97 25 110 3 14 8 36 11 50 3 14 8 36 11 50 2 14 9
48 15 76 5 28 12 64 14 80 3 16 8 45 11 64 7 41 10 66 24 180 16 131 21 164
27 174 4 5 1 6 -7 1 -8 -5 -11 -4 -7 2 9 15 15 65 23 191 3 59 8 130 10 157 5
77 5 511 0 595 -4 69 -12 163 -21 265 -2 22 -6 54 -9 70 -3 17 -7 50 -10 75
-3 25 -8 56 -11 70 -2 13 -7 42 -11 64 -3 22 -7 43 -9 46 -2 3 -6 23 -9 44
-31 195 -161 640 -263 901 -89 226 -212 466 -213 414z"/>
<path d="M2729 4453 c-1 -7 -2 -19 -3 -25 -1 -7 2 -38 6 -68 4 -30 10 -75 14
-100 15 -117 87 -316 161 -450 48 -86 146 -230 178 -260 14 -13 25 -28 25 -33
0 -18 283 -289 366 -352 43 -33 81 -62 84 -65 3 -3 27 -22 55 -41 27 -18 54
-38 60 -42 37 -30 222 -147 233 -147 6 0 12 -4 12 -10 0 -5 7 -10 15 -10 8 0
15 -4 15 -10 0 -5 5 -10 11 -10 6 0 34 -15 62 -34 29 -18 74 -46 100 -62 27
-16 61 -37 75 -46 15 -10 34 -21 42 -25 8 -4 56 -31 105 -61 78 -47 209 -123
349 -202 88 -49 137 -72 142 -67 12 11 -93 175 -183 287 -86 106 -262 274
-393 375 -36 27 -69 53 -75 58 -27 21 -135 96 -170 117 -22 13 -42 27 -45 30
-3 4 -16 13 -30 20 -40 21 -280 179 -343 227 -31 23 -59 43 -62 43 -5 0 -17
10 -79 65 -51 45 -114 105 -110 105 2 0 50 -31 107 -69 56 -37 117 -77 136
-87 18 -11 41 -23 50 -29 9 -5 64 -37 121 -69 58 -33 126 -72 153 -88 26 -15
49 -28 52 -28 7 0 174 -99 235 -139 65 -42 189 -132 227 -164 97 -80 270 -270
333 -366 8 -13 23 -34 33 -46 9 -13 17 -25 17 -28 0 -3 16 -28 35 -56 33 -50
34 -51 30 -19 -3 18 -7 51 -10 73 -6 44 -20 124 -29 168 -28 126 -117 319
-204 442 -55 77 -245 277 -307 323 -16 12 -47 35 -69 52 -32 25 -86 61 -221
148 -11 7 -32 18 -47 25 -16 6 -28 15 -28 19 0 4 -5 8 -10 8 -6 0 -45 20 -88
43 -94 53 -341 185 -507 271 -33 17 -62 33 -65 36 -3 3 -30 18 -60 33 -95 50
-302 175 -365 222 -76 56 -77 57 -108 96 -15 19 -27 28 -28 22z"/>
<path d="M7145 2744 c-96 -107 -175 -183 -258 -249 -21 -16 -50 -40 -65 -53
-48 -40 -304 -207 -422 -276 -63 -37 -122 -71 -130 -76 -8 -6 -31 -18 -50 -28
-19 -9 -37 -19 -40 -22 -5 -5 -20 -14 -99 -58 -112 -62 -335 -209 -461 -304
-183 -138 -372 -327 -549 -548 -42 -52 -79 -96 -83 -98 -5 -2 -8 -8 -8 -13 0
-8 -17 -31 -45 -63 -6 -6 -22 -27 -35 -46 -13 -19 -27 -37 -30 -40 -12 -11
-40 -60 -40 -70 0 -20 42 0 148 71 57 38 108 69 112 69 5 0 10 4 12 8 3 8 273
172 283 172 3 0 31 16 61 35 30 19 56 35 59 35 2 0 81 43 176 96 94 52 186
103 204 113 153 82 401 256 515 361 51 47 195 179 224 205 61 56 35 -4 -53
-120 -69 -91 -237 -255 -366 -358 -38 -31 -84 -67 -101 -81 -18 -14 -35 -26
-38 -26 -4 0 -32 -16 -62 -35 -30 -19 -56 -35 -58 -35 -1 0 -41 -22 -87 -50
-46 -27 -89 -50 -96 -50 -6 0 -13 -4 -15 -8 -1 -5 -41 -29 -88 -54 -47 -25
-105 -57 -130 -70 -59 -33 -228 -123 -310 -166 -36 -18 -83 -44 -105 -56 -22
-12 -65 -36 -96 -53 -92 -49 -107 -62 -89 -74 15 -10 309 -5 360 6 14 3 39 7
55 9 74 9 126 19 210 41 119 31 294 90 308 104 6 6 17 11 25 11 25 0 228 109
333 180 175 116 336 256 454 395 28 32 57 66 65 75 8 9 31 38 50 66 19 27 38
51 42 52 4 2 8 7 8 12 0 4 18 34 39 66 57 86 171 299 171 321 0 4 7 21 15 37
24 45 103 302 126 406 21 97 30 223 20 273 -6 27 -7 27 -66 -39z"/>
</g>
</svg>
