<svg xmlns="http://www.w3.org/2000/svg" version="1.0" width="229pt" height="421pt" viewBox="0 0 229 421"
     preserveAspectRatio="xMidYMid meet">
    <g transform="translate(0,421) scale(0.1,-0.1)" fill="#000000" stroke="none">
        <path d="M882 4164 c-15 -26 -91 -144 -169 -264 -223 -341 -296 -496 -324 -689 -36 -250 31 -443 265 -769 69 -95 144 -206 167 -245 70 -119 72 -122 77 -109 5 16 -49 112 -176 312 -178 280 -242 437 -258 634 -15 196 81 481 252 743 56 87 144 203 154 203 3 0 6 -51 8 -113 6 -257 49 -454 156 -725 120 -303 144 -420 112 -555 -20 -84 -43 -130 -102 -202 -49 -61 -52 -79 -16 -103 23 -15 25 -13 83 47 119 126 159 207 159 324 0 94 -30 210 -92 362 -27 66 -67 163 -88 215 -92 224 -123 408 -124 725 -1 127 -5 236 -9 243 -17 26 -47 12 -75 -34z"/>
        <path d="M1750 2330 c-74 -43 -184 -107 -245 -142 -254 -146 -325 -270 -324 -563 l0 -130 25 84 c58 198 148 354 275 476 l72 70 -71 -89 c-81 -101 -151 -229 -193 -354 -29 -86 -63 -241 -55 -250 7 -7 112 86 154 138 84 100 126 175 193 342 78 196 151 322 256 437 30 34 53 61 51 60 -1 0 -64 -36 -138 -79z"/>
        <path d="M885 2323 c41 -98 103 -349 130 -520 16 -99 33 -433 22 -433 -3 0 -18 21 -33 48 -15 26 -55 76 -88 111 -165 175 -214 217 -350 301 -75 47 -158 105 -184 128 l-47 44 50 -35 c28 -19 102 -63 165 -97 191 -103 268 -167 351 -289 l31 -46 -5 60 c-13 128 -114 268 -270 372 -40 27 -154 91 -255 142 -100 51 -202 111 -227 133 l-45 40 0 -29 c0 -16 7 -55 15 -87 54 -208 225 -375 595 -581 148 -83 202 -133 252 -235 l37 -75 -13 -80 c-33 -193 -99 -381 -211 -600 -87 -169 -140 -257 -148 -248 -4 3 -7 20 -7 36 0 76 -155 259 -275 325 -75 41 -32 31 50 -12 58 -30 180 -140 223 -201 l22 -30 -16 55 c-26 91 -73 169 -124 206 -60 44 -117 60 -290 84 -80 11 -161 23 -180 26 -30 5 -24 -1 39 -37 52 -29 114 -80 206 -169 107 -104 145 -134 209 -166 89 -43 96 -54 96 -150 0 -63 -1 -67 -70 -169 -39 -57 -70 -107 -70 -109 0 -3 13 -12 29 -21 l29 -15 55 73 c74 96 151 228 287 492 116 225 153 276 239 339 44 32 50 33 166 39 152 8 232 29 425 112 217 93 338 125 530 138 26 1 -4 12 -110 40 -80 20 -197 51 -260 68 -270 72 -410 45 -592 -113 -32 -27 -77 -73 -100 -101 l-43 -51 35 21 c188 114 393 175 584 171 50 0 75 -3 56 -5 -168 -16 -338 -61 -455 -120 -65 -33 -228 -137 -282 -180 -24 -19 -43 -30 -43 -24 0 5 9 47 20 94 54 226 69 552 36 767 -28 184 -95 401 -166 540 -20 39 -39 57 -25 23z"/>
        <path d="M65 1630 c21 -184 141 -353 358 -501 99 -68 428 -262 434 -256 2 2 -15 31 -37 64 -62 94 -173 191 -315 279 -71 44 -149 98 -174 122 l-46 43 50 -34 c28 -19 102 -63 165 -97 176 -95 258 -164 335 -280 l36 -55 -7 50 c-21 157 -109 283 -272 391 -31 21 -137 80 -236 131 -175 91 -266 148 -287 181 -7 13 -9 3 -4 -38z"/>
        <path d="M1700 1006 c-65 -71 -167 -144 -315 -226 -216 -120 -328 -211 -446 -360 -114 -145 -114 -150 -13 -81 49 33 150 92 224 132 172 92 235 135 327 222 69 65 73 68 52 32 -33 -57 -133 -154 -214 -207 -38 -25 -149 -87 -245 -138 -96 -50 -179 -96 -185 -101 -15 -15 119 -10 203 7 256 52 472 224 587 465 40 86 78 224 73 271 l-3 33 -45 -49z"/>
    </g>
</svg>
